<svg width="48" height="28" viewBox="0 0 48 28" fill="none" xmlns="http://www.w3.org/2000/svg">
<path fill-rule="evenodd" clip-rule="evenodd" d="M27.5899 15.4705C27.5899 18.7869 25.7637 19.1849 23.9374 19.1849C20.7971 19.1849 20.1289 17.593 20.1289 15.3158V8.89294H18.9707V8.27386H23.3583V8.89294H22.1111V15.1278C22.1111 17.3277 22.6902 18.4222 24.2826 18.4222C25.9084 18.4222 26.6991 17.6262 26.6991 15.3379V8.89294H25.5298V8.27386H28.6479V8.89294H27.5899V15.4705ZM30.5744 18.4442V8.89294H29.4385V8.27386H34.3049C36.3763 8.27386 37.4007 9.4346 37.4007 10.7943C37.4007 12.2425 36.0756 13.0606 34.8951 13.3038C37.1892 13.5138 37.8128 14.9731 37.8128 16.0453C37.8128 18.2342 35.9308 19.0633 34.0823 19.0633H29.3605V18.4442H30.5744ZM35.4186 10.916C35.4186 9.90998 34.8951 8.89294 33.7482 8.89294H32.5121V13.0385H33.6145C34.8283 13.0385 35.4186 12.0214 35.4186 10.916ZM35.8083 16.0453C35.8083 14.6082 35.1847 13.6465 33.7258 13.6465H32.5121V18.4442H33.4921C35.0399 18.4442 35.8083 17.5377 35.8083 16.0453ZM42.668 8.74921C41.5211 8.74921 40.7861 9.42356 40.7861 10.5954C40.7861 11.6566 41.9442 12.1651 43.0689 12.541C43.7371 12.7731 44.5834 13.0827 45.1625 13.6354C45.7973 14.2324 46.1425 15.0283 46.1202 16.0343C46.0757 17.9137 44.7505 19.1849 42.4119 19.196C41.5322 19.196 40.1625 18.997 39.3384 18.5216L39.2493 15.6916H39.9398C39.9954 17.593 40.8974 18.588 42.4787 18.588C43.7482 18.588 44.4498 17.7478 44.4498 16.4654C44.4498 15.36 43.5256 14.8846 42.1224 14.4203C41.6658 14.2656 40.7638 13.9339 40.1291 13.3149C39.5611 12.751 39.2939 12.0435 39.2939 11.2918C39.2939 9.09192 40.8752 8.14121 42.8351 8.14121C43.6146 8.14121 44.7839 8.41759 45.4632 8.8045L45.53 11.2587H44.8395C44.6948 9.51199 43.9264 8.74921 42.668 8.74921Z" fill="white"/>
<path fill-rule="evenodd" clip-rule="evenodd" d="M13.551 10.4568L13.2607 10.6969L13.5671 11.6893L12.6479 11.1931L12.3415 11.4332L13.3574 11.9774L12.2771 12.8417L11.9869 12.4576L12.3739 12.1535L12.0836 11.8174L11.6967 12.1214L11.4064 11.7533L11.7934 11.4492L11.5032 11.0811L9.51995 12.7137L11.4064 14.2182L11.745 13.8021C11.9869 13.8182 12.1642 13.9943 12.2609 14.2182L11.9224 14.6345L12.1319 14.7944C12.5995 14.3783 13.2123 14.1063 13.8411 14.1063C15.1632 14.1063 16.1952 15.1787 16.1952 16.4911C16.1952 16.9233 16.0824 17.3876 15.8405 17.7717L16.1952 18.0439C16.179 18.3 15.9372 18.572 15.6954 18.6361L15.3567 18.364C14.8892 18.8122 14.2765 19.0522 13.6315 19.0522C12.3094 19.0522 11.2774 18.0118 11.2774 16.6833C11.2774 16.2512 11.4064 15.8029 11.5999 15.4347L11.4064 15.2587L11.0678 15.7069C10.8259 15.6749 10.6163 15.5148 10.5519 15.2587L10.8904 14.8585L9.29415 13.546V15.6268L9.82623 15.6428C9.89079 15.7229 9.93919 15.8349 9.93919 15.963C9.93919 16.075 9.89079 16.2031 9.84238 16.2991H9.29415V16.5552C10.4551 16.7473 11.4225 17.7236 11.4225 18.9081C11.4225 20.1407 10.4713 21.117 9.29415 21.3091V21.7253C9.18131 21.7894 9.03616 21.8373 8.90722 21.8373C8.76213 21.8373 8.60082 21.7894 8.47183 21.7253V21.3091C7.29483 21.117 6.37574 20.1407 6.37574 18.9081C6.37574 17.7236 7.29483 16.7473 8.47183 16.5711V16.2991H7.92365C7.8591 16.2031 7.82691 16.075 7.82691 15.963C7.82691 15.8349 7.8591 15.7229 7.92365 15.6268H8.47183V13.546L6.85948 14.8585L7.21418 15.2587C7.13358 15.5148 6.92392 15.6749 6.68212 15.7069L6.34351 15.2587L6.13386 15.4347C6.35962 15.8029 6.47248 16.2512 6.47248 16.6833C6.47248 18.0118 5.44054 19.0522 4.11841 19.0522C3.48952 19.0522 2.8607 18.8122 2.40927 18.364L2.05454 18.6361C1.82878 18.572 1.5869 18.3 1.55469 18.0439L1.89329 17.7717C1.68371 17.3876 1.55469 16.9233 1.55469 16.4911C1.55469 15.1787 2.58662 14.1063 3.90876 14.1063C4.55375 14.1063 5.16644 14.3783 5.63401 14.7944L5.82756 14.6505L5.48894 14.2182C5.56956 13.9943 5.77915 13.8342 6.02103 13.8021L6.35962 14.2182L8.24614 12.7137L6.26289 11.0811L5.97262 11.4492L6.35963 11.7533L6.06935 12.1215L5.68242 11.8174L5.39221 12.1535L5.76305 12.4576L5.47284 12.8417L4.40862 11.9774L5.40833 11.4332L5.11806 11.1931L4.19905 11.6893L4.50536 10.6969L4.21515 10.4568L3.87655 11.5452L2.79619 10.6809L3.08647 10.3288L3.45729 10.6329L3.76369 10.2807L3.37668 9.94459L3.66694 9.60845L4.0539 9.89661L4.32798 9.56046L3.48952 8.90418C3.57014 8.6321 3.74757 8.40797 4.00549 8.24791L8.47183 11.8654V9.44838H8.0204V9.9126H7.56891V9.44838H7.10127V9.9126H6.63371V8.55206L7.69785 9.00021V8.6161L6.71435 8.21591L7.69785 7.83172V7.4636L6.63371 7.87978V6.50325H7.10127V6.99945H7.56891V6.50325H8.0204V6.99945H8.47183V5.91099C8.60082 5.86295 8.74597 5.83096 8.89106 5.83096C9.02012 5.83096 9.16521 5.86295 9.29415 5.91099V11.8654L13.7606 8.2479C14.0024 8.40797 14.1797 8.6321 14.2765 8.90418L13.4219 9.56045L13.7121 9.8966L14.0991 9.60843L14.3894 9.94458L14.0024 10.2807L14.2926 10.6328L14.6796 10.3288L14.9699 10.6809L13.8895 11.5452L13.551 10.4568ZM4.42471 17.0034C4.42471 17.3876 4.71499 17.6277 5.05361 17.6597L4.48923 18.0918C4.10229 17.9477 3.74757 17.4836 3.74757 17.0834C3.74757 16.9554 3.77979 16.8754 3.81201 16.7793C3.76368 16.7793 3.73139 16.7953 3.69917 16.7953C3.1832 16.7953 2.74785 16.3151 2.65113 15.8189L3.23161 15.3708C3.21541 15.4347 3.21541 15.4828 3.21541 15.5309C3.21541 15.851 3.52182 16.139 3.8443 16.139C4.18292 16.139 4.50534 15.851 4.50534 15.5148C4.50534 15.0986 4.18292 14.8266 3.77979 14.8266C2.98972 14.8266 2.21578 15.579 2.21578 16.5711C2.21578 16.8593 2.28022 17.1314 2.40925 17.3715L2.76397 17.0995C3.00584 17.2115 3.19932 17.4515 3.26382 17.7236L2.90911 17.9958C3.24771 18.2839 3.66694 18.412 4.10229 18.412C5.00519 18.412 5.73082 17.6917 5.73082 17.0514C5.73082 16.6833 5.47284 16.3632 5.08582 16.3632C4.73111 16.3632 4.42471 16.6353 4.42471 17.0034ZM9.21356 18.38C9.21356 18.7321 9.50374 19.0201 9.84238 19.0201C10.0842 19.0201 10.181 18.9242 10.3584 18.7801V19.5003C10.181 19.5965 10.0036 19.6444 9.81013 19.6444C9.4232 19.6444 9.10065 19.5324 8.89106 19.1963C8.66532 19.5324 8.34289 19.6444 7.95584 19.6444C7.7785 19.6444 7.58501 19.5965 7.40767 19.5003V18.7801C7.56891 18.9401 7.69791 19.0201 7.92365 19.0201C8.27833 19.0201 8.55242 18.7321 8.55242 18.38C8.55242 18.0439 8.32674 17.7398 7.95584 17.7398C7.29483 17.7398 7.02073 18.3639 7.02073 18.9401C7.02073 19.7885 7.64957 20.5088 8.47183 20.6529V20.2207C8.60082 20.1566 8.74597 20.1407 8.87497 20.1407C9.02012 20.1407 9.16521 20.1566 9.29415 20.2207V20.6529C10.0521 20.5408 10.7453 19.7405 10.7453 18.9401C10.7453 18.3479 10.5035 17.7398 9.81013 17.7398C9.45545 17.7398 9.21356 18.0439 9.21356 18.38ZM13.2284 15.5148C13.2284 15.8349 13.5671 16.139 13.9056 16.139C14.2281 16.139 14.5344 15.851 14.5344 15.5309C14.5344 15.4828 14.5183 15.4347 14.5183 15.3708L15.0827 15.8189C14.9859 16.3632 14.5023 16.8433 13.9379 16.7793C13.9701 16.8754 13.9863 16.9554 13.9863 17.0834C13.9863 17.4836 13.6314 17.9477 13.2446 18.0918L12.6802 17.6597C13.035 17.6277 13.3252 17.3876 13.3252 17.0034C13.3252 16.6353 13.0027 16.3632 12.6479 16.3632C12.2771 16.3632 12.003 16.6833 12.003 17.0675C12.003 17.5316 12.5673 18.412 13.6476 18.412C14.083 18.412 14.5023 18.2839 14.8247 17.9958L14.4699 17.7236C14.5506 17.4516 14.7118 17.2115 14.9698 17.0995L15.3245 17.3715C15.4535 17.1314 15.5341 16.8593 15.5341 16.5711C15.5341 15.8029 14.9376 14.8266 13.9863 14.8266C13.5832 14.8266 13.2284 15.0986 13.2284 15.5148Z" fill="white"/>
</svg>
