<svg width="64" height="28" viewBox="0 0 64 28" fill="none" xmlns="http://www.w3.org/2000/svg">
<path d="M62.2873 11.7584C61.2373 11.7584 60.7126 12.1655 60.3453 12.7689L60.1748 11.7584H58.4955V18.5027H60.3453V15.1964C60.3453 14.1727 60.7653 13.438 61.8673 13.438H62.6026V11.7584H62.2873Z" fill="white"/>
<path d="M54.2035 18.5831C56.0007 18.5831 57.1688 17.5334 57.3785 16.2214H55.5547C55.3973 16.8511 54.8723 17.1792 54.1248 17.1792C53.193 17.1792 52.5762 16.6019 52.537 15.6441V15.5522H57.4312C57.4703 15.3419 57.4838 15.1191 57.4838 14.9222C57.4578 12.941 56.0925 11.6814 54.0722 11.6814C51.9857 11.6814 50.6082 13.0457 50.6082 15.1451C50.6082 17.2316 51.9597 18.5831 54.2035 18.5831ZM52.5762 14.3449C52.6815 13.5444 53.2848 13.0589 54.085 13.0589C54.925 13.0589 55.4892 13.5181 55.6205 14.3449H52.5762Z" fill="white"/>
<path d="M47.7328 18.5034H49.5829V9.31901H47.7328V18.5034Z" fill="white"/>
<path d="M44.5912 18.5034H46.4413V9.31899H44.5912V18.5034Z" fill="white"/>
<path d="M42.388 11.0362C42.9913 11.0362 43.4636 10.5899 43.4636 9.99971C43.4636 9.39637 42.9913 8.95004 42.388 8.95004C41.7843 8.95004 41.312 9.39637 41.312 9.99971C41.312 10.5899 41.7843 11.0362 42.388 11.0362ZM41.4565 18.5024H43.3192V11.758H41.4565V18.5024Z" fill="white"/>
<path d="M32.6392 18.5033H34.6072V16.0367L35.8804 14.5936L38.5307 18.5033H40.8924L37.271 13.15L40.6696 9.31896H38.2815L34.6072 13.4781V9.31896H32.6392V18.5033Z" fill="white"/>
<path d="M27.9222 18.5831C30.0742 18.5831 31.478 17.2184 31.478 15.1319C31.478 13.0589 30.0742 11.6814 27.9222 11.6814C25.7702 11.6814 24.3664 13.0589 24.3664 15.1319C24.3664 17.2052 25.7702 18.5831 27.9222 18.5831ZM27.9222 17.0742C26.8857 17.0742 26.2557 16.2734 26.2557 15.1319C26.2557 13.9904 26.8857 13.1902 27.9222 13.1902C28.9587 13.1902 29.6019 13.9904 29.6019 15.1319C29.6019 16.2734 28.9587 17.0742 27.9222 17.0742Z" fill="white"/>
<path d="M20.4781 11.6807C19.5463 11.6807 18.8899 12.0744 18.4441 12.6122V9.31901H16.5939V18.5034H18.2077L18.3914 17.585C18.8244 18.1627 19.4936 18.5824 20.4646 18.5824C22.2884 18.5824 23.6008 17.2045 23.6008 15.1184C23.6008 12.9795 22.2884 11.6807 20.4781 11.6807ZM20.0581 17.0735C19.0476 17.0735 18.4176 16.273 18.4176 15.1184C18.4176 13.9769 19.0476 13.1895 20.0581 13.1895C21.0683 13.1895 21.724 13.9769 21.724 15.1312C21.724 16.2862 21.0683 17.0735 20.0581 17.0735Z" fill="white"/>
<path d="M12.0206 18.5831C14.1724 18.5831 15.5765 17.2184 15.5765 15.1319C15.5765 13.0589 14.1724 11.6814 12.0206 11.6814C9.86879 11.6814 8.4646 13.0589 8.4646 15.1319C8.4646 17.2052 9.86879 18.5831 12.0206 18.5831ZM12.0206 17.0742C10.984 17.0742 10.3541 16.2734 10.3541 15.1319C10.3541 13.9904 10.984 13.1902 12.0206 13.1902C13.0571 13.1902 13.7 13.9904 13.7 15.1319C13.7 16.2734 13.0571 17.0742 12.0206 17.0742Z" fill="white"/>
<path d="M0.798828 18.5034H2.76703V15.4199H4.42027L5.96851 18.5034H8.14671L6.33613 14.961C7.29381 14.5019 7.91051 13.5569 7.91051 12.3759C7.91051 10.5125 6.55914 9.31901 4.53847 9.31901H0.798828V18.5034ZM4.38094 10.9589C5.31247 10.9589 5.90307 11.5099 5.90307 12.3759C5.90307 13.2287 5.31247 13.78 4.38094 13.78H2.76703V10.9589H4.38094Z" fill="white"/>
</svg>
