<svg xmlns="http://www.w3.org/2000/svg" width="319" height="64" fill="none" viewBox="0 0 319 64">
    <path fill="#fff" stroke="#000" stroke-linecap="round" stroke-linejoin="round" stroke-miterlimit="1.5"
        d="M317.5-95.5c0 87.261-70.739 158-158 158S1.5-8.239 1.5-95.5s70.739-158 158-158 158 70.739 158 158Z" />
    <path fill="#fff" stroke="#000" stroke-linecap="round" stroke-linejoin="round" stroke-miterlimit="1.5"
        d="M279.5-95.5c0 66.274-53.726 120-120 120s-120-53.726-120-120 53.726-120 120-120 120 53.726 120 120Z" />
    <path fill="#fff" fill-rule="evenodd"
        d="M159.5 58C244.276 58 313-10.724 313-95.5S244.276-249 159.5-249 6-180.276 6-95.5 74.724 58 159.5 58Zm0-28C228.812 30 285-26.188 285-95.5S228.812-221 159.5-221 34-164.812 34-95.5 90.188 30 159.5 30Z"
        clip-rule="evenodd" />
    <path stroke="#000" stroke-linecap="round" stroke-linejoin="round" stroke-miterlimit="1.5"
        d="M284.5-95.5c0 69.036-55.964 125-125 125s-125-55.964-125-125 55.964-125 125-125 125 55.964 125 125Z" />
    <path stroke="#000" stroke-linecap="round" stroke-linejoin="round" stroke-miterlimit="1.5"
        d="M312.5-95.5c0 84.5-68.5 153-153 153S6.5-11 6.5-95.5s68.5-153 153-153 153 68.5 153 153Z" />
    <path stroke="#000" stroke-linecap="round" stroke-linejoin="round"
        d="m136.554-226.393-8.57 1.811-1.778-7.289 2.888-.634.788 3.613 3.083-.608-1.485-7.398-6.19 1.377-6.35 1.74-5.766 1.789 2.453 7.148 2.767-.883-1.167-3.595 2.807-.934 2.141 7.28-8.083 2.609-8.088 3.248-3.016-6.87 2.734-1.125 1.404 3.422 2.93-1.135-2.747-7.028-5.857 2.432-5.952 2.815-5.367 2.764 3.656 6.613 2.573-1.349-1.774-3.338 2.602-1.407 3.373 6.796-7.513 3.972-7.406 4.602-4.163-6.241 2.497-1.583 1.976 3.126 2.689-1.626-3.926-6.444-5.345 3.411-5.373 3.807-4.805 3.653 4.749 5.878 2.299-1.776-2.327-2.979 2.319-1.838 4.501 6.108-6.728 5.239-6.51 5.843-5.186-5.421 2.183-1.993 2.49 2.734 2.365-2.07-4.988-5.662-4.67 4.29-4.627 4.684-4.096 4.435 5.7 4.961 1.955-2.149-2.81-2.528 1.963-2.214 5.497 5.231-5.658 6.258-5.347 6.808-6.045-4.443 1.806-2.341 2.925 2.263 1.972-2.447-5.892-4.715-3.858 5.032-3.748 5.413-3.268 5.076 6.47 3.901 1.555-2.454-3.205-2.005 1.552-2.519 6.317 4.202-4.522 7.199-4.114 7.692-6.726-3.326 1.372-2.618 3.274 1.719 1.517-2.752-6.621-3.62-2.925 5.626-2.752 5.982-2.336 5.567 7.05 2.717 1.104-2.687-3.504-1.417 1.09-2.751 6.952 3.041-3.213 7.904-2.72 8.32-7.202-2.103.894-2.818 3.524 1.123 1.013-2.974-7.15-2.411-1.9 6.049-1.667 6.37-1.331 5.889 7.416 1.447.619-2.838-3.697-.785.594-2.899 7.375 1.784-1.778 8.289-1.228 8.611-7.458-.823.393-2.93 3.665.495.482-3.105-7.46-1.135-.822 6.288-.538 6.562-.29 6.03 7.555.14.118-2.902-3.778-.133.083-2.957 7.572.477-.317 8.531.282 8.753-7.487.485-.122-2.953 3.695-.149-.064-3.142-7.543.178.281 6.335.61 6.556.762 5.988 7.465-1.174-.389-2.878-3.743.525-.432-2.927 7.54-.845 1.164 8.415 1.793 8.528-7.289 1.778-.633-2.888 3.613-.788-.608-3.083-7.398 1.485 1.377 6.19 1.74 6.351 1.79 5.765 7.147-2.452-.883-2.768-3.595 1.167-.934-2.807 7.28-2.14 2.61 8.082 3.249 8.086-6.87 3.017-1.125-2.734 3.422-1.404-1.135-2.93-7.028 2.747 2.431 5.857 2.816 5.952 2.764 5.367 6.613-3.657-1.35-2.572-3.337 1.774-1.408-2.602 6.797-3.373 3.971 7.512 4.602 7.405-6.242 4.164-1.583-2.497 3.126-1.977-1.626-2.688-6.444 3.925 3.411 5.346 3.807 5.372 3.654 4.806 5.877-4.749-1.776-2.299-2.979 2.327-1.837-2.319 6.107-4.502 5.24 6.73L63.481-3 58.06 2.187 56.067.004l2.734-2.491-2.07-2.365L51.07.136l4.29 4.67 4.685 4.627 4.434 4.096 4.961-5.7-2.149-1.954-2.528 2.81-2.214-1.964 5.23-5.496 6.259 5.657 6.808 5.346-4.444 6.045-2.34-1.806 2.262-2.925-2.447-1.972-4.715 5.892 5.032 3.858 5.413 3.749 5.076 3.268 3.901-6.472-2.454-1.553-2.005 3.204-2.519-1.551 4.202-6.318 7.2 4.522 7.691 4.114-3.326 6.725-2.619-1.372 1.72-3.274-2.752-1.516-3.62 6.621 5.626 2.925 5.982 2.751 5.566 2.337 2.718-7.051-2.687-1.104-1.417 3.504-2.751-1.09 3.041-6.951 7.904 3.213 8.319 2.721-2.103 7.202-2.817-.894 1.122-3.524-2.974-1.014-2.411 7.151 6.05 1.9 6.37 1.667 5.888 1.331 1.448-7.416-2.838-.619-.786 3.697-2.898-.594 1.783-7.375 8.289 1.778 8.611 1.229-.823 7.457-2.93-.392.495-3.665-3.105-.483-1.135 7.46 6.288.823 6.562.537 6.03.29.14-7.555-2.902-.117-.133 3.777-2.957-.082.477-7.573 8.532.316 8.753-.284.485 7.487-2.954.122-.148-3.695-3.142.064.178 7.543 6.334-.28 6.557-.612 5.988-.761-1.174-7.465-2.878.39.525 3.742-2.927.432-.845-7.54 8.415-1.165 8.53-1.793 1.777 7.29-2.887.632-.789-3.613-3.082.609 1.484 7.398 6.19-1.378 6.351-1.739 5.765-1.79-2.452-7.147-2.768.882 1.168 3.595-2.808.934-2.141-7.279 8.083-2.609 8.086-3.249 3.017 6.87-2.734 1.125-1.404-3.422-2.93 1.135 2.747 7.028 5.856-2.432 5.952-2.815 5.368-2.764-3.657-6.613-2.572 1.35 1.774 3.337-2.603 1.407-3.372-6.796 7.513-3.972 7.405-4.602 4.163 6.241-2.497 1.583-1.976-3.126-2.689 1.626 3.926 6.445 5.345-3.412 5.373-3.806 4.805-3.654-4.749-5.878-2.299 1.776 2.327 2.98-2.319 1.837-4.501-6.108 6.729-5.239 6.511-5.843 5.187 5.421-2.183 1.993-2.491-2.734-2.364 2.07 4.988 5.662 4.669-4.29 4.628-4.684 4.096-4.435-5.7-4.961-1.955 2.149 2.81 2.528-1.963 2.214-5.497-5.231 5.657-6.258 5.347-6.808 6.045 4.443-1.806 2.341-2.925-2.263-1.972 2.447 5.891 4.715L276.18-9.7l3.748-5.413 3.269-5.076-6.472-3.901-1.554 2.454 3.205 2.005-1.552 2.519-6.317-4.202 4.521-7.199 4.113-7.692 6.725 3.326-1.371 2.618-3.275-1.719-1.516 2.752 6.621 3.62 2.925-5.626 2.752-5.982 2.336-5.567-7.051-2.717-1.103 2.687 3.503 1.417-1.089 2.751-6.952-3.041 3.213-7.904 2.721-8.32 7.202 2.103-.895 2.818-3.523-1.123-1.014 2.974 7.15 2.411 1.901-6.049 1.667-6.37 1.331-5.889-7.416-1.447-.619 2.838 3.697.785-.594 2.899-7.375-1.784 1.778-8.289 1.229-8.611 7.457.823-.392 2.93-3.665-.495-.483 3.105 7.46 1.135.823-6.288.537-6.562.29-6.03-7.555-.14-.117 2.902 3.777.133-.082 2.957-7.573-.477.316-8.532-.283-8.753 7.487-.485.122 2.953-3.695.149.064 3.142 7.544-.178-.282-6.335-.61-6.556-.762-5.989-7.464 1.175.388 2.878 3.743-.525.432 2.927-7.54.844-1.164-8.414-1.794-8.529 7.289-1.778.633 2.888-3.613.788.609 3.083 7.398-1.485-1.378-6.189-1.739-6.351-1.79-5.765-7.147 2.452.882 2.768 3.595-1.168.934 2.807-7.279 2.142-2.609-8.083-3.248-8.086 6.869-3.017 1.125 2.734-3.421 1.404 1.135 2.93 7.028-2.747-2.432-5.857-2.816-5.952-2.763-5.367-6.613 3.657 1.349 2.572 3.338-1.774 1.407 2.602-6.797 3.373-3.972-7.513-4.602-7.405 6.241-4.163 1.583 2.496-3.126 1.977 1.627 2.689 6.444-3.926-3.412-5.345-3.806-5.373-3.654-4.805-5.877 4.749 1.775 2.298 2.979-2.326 1.838 2.318-6.108 4.502-5.239-6.729-5.844-6.511 5.421-5.187 1.993 2.184-2.733 2.49 2.069 2.365 5.662-4.988-4.29-4.67-4.684-4.627-4.435-4.096-4.961 5.7 2.149 1.954 2.529-2.81 2.213 1.964-5.23 5.496-6.258-5.657-6.808-5.346 4.443-6.045 2.341 1.806-2.262 2.925 2.447 1.972 4.715-5.892-5.033-3.858-5.413-3.749-5.076-3.268-3.901 6.472 2.454 1.553 2.005-3.204 2.52 1.551-4.203 6.318-7.199-4.523-7.691-4.113 3.325-6.726 2.619 1.372-1.719 3.274 2.752 1.517 3.62-6.621-5.626-2.925-5.982-2.752-5.567-2.336-2.717 7.05 2.686 1.104 1.418-3.504 2.751 1.09-3.041 6.952-7.905-3.214-8.321-2.721 2.103-7.202 2.818.895-1.123 3.524 2.974 1.013 2.412-7.15-6.05-1.9-6.37-1.667-5.888-1.331-1.448 7.416 2.838.619.786-3.698 2.898.594-1.783 7.376-8.29-1.779-8.612-1.229.822-7.457 2.93.392-.495 3.665 3.105.483 1.135-7.46-6.287-.823-6.563-.537-6.03-.29-.14 7.555 2.903.117.132-3.777 2.958.082-.478 7.573-8.528-.315-8.751.286-.485-7.487 2.954-.123.149 3.696 3.142-.064-.178-7.544-6.335.282-6.556.61-5.989.761 1.174 7.465 2.879-.388-.525-3.744 2.926-.432.845 7.541-8.456 1.181" />
</svg>