<svg viewBox="0 0 319 319" fill="none" xmlns="http://www.w3.org/2000/svg">
<path d="M317.5 159.5C317.5 246.761 246.761 317.5 159.5 317.5C72.239 317.5 1.5 246.761 1.5 159.5C1.5 72.239 72.239 1.5 159.5 1.5C246.761 1.5 317.5 72.239 317.5 159.5Z" fill="white" stroke="#313f5d" stroke-miterlimit="1.5" stroke-linecap="round" stroke-linejoin="round"/>
<path d="M279.5 159.5C279.5 225.774 225.774 279.5 159.5 279.5C93.2258 279.5 39.5 225.774 39.5 159.5C39.5 93.2258 93.2258 39.5 159.5 39.5C225.774 39.5 279.5 93.2258 279.5 159.5Z" fill="white" stroke="#313f5d" stroke-miterlimit="1.5" stroke-linecap="round" stroke-linejoin="round"/>
<path d="M159.5 272C221.632 272 272 221.632 272 159.5C272 97.368 221.632 47 159.5 47C97.368 47 47 97.368 47 159.5C47 221.632 97.368 272 159.5 272Z" stroke="#B6B6B6" stroke-miterlimit="1.5" stroke-linecap="round" stroke-linejoin="round" stroke-dasharray="1 4"/>
<path d="M159.5 267C218.871 267 267 218.871 267 159.5C267 100.129 218.871 52 159.5 52C100.129 52 52 100.129 52 159.5C52 218.871 100.129 267 159.5 267Z" stroke="#B6B6B6" stroke-miterlimit="1.5" stroke-linecap="round" stroke-linejoin="round" stroke-dasharray="1 4"/>
<path d="M159.5 262C216.109 262 262 216.109 262 159.5C262 102.891 216.109 57 159.5 57C102.891 57 57 102.891 57 159.5C57 216.109 102.891 262 159.5 262Z" stroke="#B6B6B6" stroke-miterlimit="1.5" stroke-linecap="round" stroke-linejoin="round" stroke-dasharray="1 4"/>
<path d="M159.5 272C221.632 272 272 221.632 272 159.5C272 97.368 221.632 47 159.5 47C97.368 47 47 97.368 47 159.5C47 221.632 97.368 272 159.5 272Z" stroke="#B6B6B6" stroke-miterlimit="1.5" stroke-linecap="round" stroke-linejoin="round" stroke-dasharray="1 4"/>
<path d="M159.5 267C218.871 267 267 218.871 267 159.5C267 100.129 218.871 52 159.5 52C100.129 52 52 100.129 52 159.5C52 218.871 100.129 267 159.5 267Z" stroke="#B6B6B6" stroke-miterlimit="1.5" stroke-linecap="round" stroke-linejoin="round" stroke-dasharray="1 4"/>
<path d="M159.5 262C216.109 262 262 216.109 262 159.5C262 102.891 216.109 57 159.5 57C102.891 57 57 102.891 57 159.5C57 216.109 102.891 262 159.5 262Z" stroke="#B6B6B6" stroke-miterlimit="1.5" stroke-linecap="round" stroke-linejoin="round" stroke-dasharray="1 4"/>
<path d="M159.5 257C213.348 257 257 213.348 257 159.5C257 105.652 213.348 62 159.5 62C105.652 62 62 105.652 62 159.5C62 213.348 105.652 257 159.5 257Z" stroke="#B6B6B6" stroke-miterlimit="1.5" stroke-linecap="round" stroke-linejoin="round" stroke-dasharray="1 4"/>
<path d="M159.5 245C206.72 245 245 206.72 245 159.5C245 112.28 206.72 74 159.5 74C112.28 74 74 112.28 74 159.5C74 206.72 112.28 245 159.5 245Z" stroke="#B6B6B6" stroke-miterlimit="1.5" stroke-linecap="round" stroke-linejoin="round" stroke-dasharray="1 4"/>
<path d="M159.5 237C202.302 237 237 202.302 237 159.5C237 116.698 202.302 82 159.5 82C116.698 82 82 116.698 82 159.5C82 202.302 116.698 237 159.5 237Z" stroke="#B6B6B6" stroke-miterlimit="1.5" stroke-linecap="round" stroke-linejoin="round" stroke-dasharray="1 4"/>
<path d="M159.5 252C210.586 252 252 210.586 252 159.5C252 108.414 210.586 67 159.5 67C108.414 67 67 108.414 67 159.5C67 210.586 108.414 252 159.5 252Z" stroke="#B6B6B6" stroke-miterlimit="1.5" stroke-linecap="round" stroke-linejoin="round"/>
<path fill-rule="evenodd" clip-rule="evenodd" d="M159.5 313C244.276 313 313 244.276 313 159.5C313 74.7243 244.276 6 159.5 6C74.7243 6 6 74.7243 6 159.5C6 244.276 74.7243 313 159.5 313ZM159.5 285C228.812 285 285 228.812 285 159.5C285 90.1883 228.812 34 159.5 34C90.1883 34 34 90.1883 34 159.5C34 228.812 90.1883 285 159.5 285Z" fill="black"/>
<path d="M284.5 159.5C284.5 228.536 228.536 284.5 159.5 284.5C90.4644 284.5 34.5 228.536 34.5 159.5C34.5 90.4644 90.4644 34.5 159.5 34.5C228.536 34.5 284.5 90.4644 284.5 159.5Z" stroke="#C0C0C0" stroke-miterlimit="1.5" stroke-linecap="round" stroke-linejoin="round"/>
<path d="M312.5 159.5C312.5 244 244 312.5 159.5 312.5C75.0004 312.5 6.5 244 6.5 159.5C6.5 75.0004 75.0004 6.5 159.5 6.5C244 6.5 312.5 75.0004 312.5 159.5Z" stroke="#C0C0C0" stroke-miterlimit="1.5" stroke-linecap="round" stroke-linejoin="round"/>
<path d="M136.554 28.6072L127.984 30.4175L126.206 23.1285L129.094 22.4952L129.882 26.1084L132.965 25.4999L131.48 18.1016L125.29 19.4791L118.94 21.2186L113.174 23.0084L115.627 30.1557L118.394 29.2734L117.227 25.6784L120.034 24.7444L122.175 32.0235L114.092 34.6326L106.004 37.8811L102.988 31.0114L105.722 29.8863L107.126 33.3078L110.056 32.1732L107.309 25.1451L101.452 27.5766L95.5003 30.3924L90.1332 33.1562L93.7894 39.769L96.3618 38.4195L94.5879 35.0818L97.1903 33.6746L100.563 40.4713L93.0498 44.4433L85.6443 49.0454L81.4808 42.8039L83.9777 41.2212L85.9543 44.3469L88.643 42.7207L84.7173 36.2765L79.372 39.688L73.9993 43.4945L69.1937 47.1483L73.9427 53.0258L76.2417 51.2501L73.9151 48.2712L76.2336 46.4334L80.7354 52.5411L74.0074 57.7796L67.4979 63.6233L62.311 58.2023L64.4941 56.209L66.9848 58.9427L69.3492 56.8731L64.3612 51.211L59.6917 55.5013L55.0641 60.1853L50.9683 64.6202L56.6683 69.5808L58.6229 67.4319L55.813 64.9037L57.7761 62.6902L63.2728 67.9206L57.6151 74.1788L52.2683 80.9874L46.2229 76.5439L48.0288 74.2034L50.9544 76.4657L52.9257 74.0187L47.0345 69.3035L43.1764 74.3359L39.4275 79.749L36.1595 84.8248L42.6307 88.7261L44.1847 86.2718L40.9804 84.267L42.5315 81.7477L48.8491 85.9499L44.3265 93.1492L40.2129 100.841L33.4875 97.5152L34.8592 94.8966L38.1334 96.6162L39.6496 93.864L33.0288 90.2439L30.1037 95.8701L27.3523 101.852L25.0157 107.419L32.0664 110.136L33.1703 107.449L29.6664 106.032L30.7562 103.281L37.7079 106.322L34.4951 114.226L31.7746 122.546L24.5726 120.443L25.4672 117.625L28.9909 118.748L30.0044 115.774L22.8542 113.363L20.954 119.412L19.2868 125.782L17.9558 131.671L25.3721 133.118L25.991 130.28L22.2937 129.495L22.8877 126.596L30.2628 128.38L28.4848 136.669L27.2567 145.28L19.7992 144.457L20.1917 141.527L23.8567 142.022L24.3392 138.917L16.8792 137.782L16.0567 144.07L15.5192 150.632L15.2292 156.662L22.7842 156.802L22.9017 153.9L19.1242 153.767L19.2067 150.81L26.7792 151.287L26.462 159.818L26.7445 168.571L19.2574 169.056L19.1351 166.103L22.8304 165.954L22.7664 162.812L15.2227 162.99L15.5045 169.325L16.1147 175.881L16.8762 181.869L24.3407 180.695L23.9524 177.817L20.2093 178.342L19.777 175.415L27.3174 174.57L28.4814 182.985L30.2745 191.513L22.9854 193.291L22.3521 190.403L25.9653 189.615L25.3568 186.532L17.9585 188.017L19.3361 194.207L21.0755 200.558L22.8654 206.323L30.0126 203.871L29.1303 201.103L25.5353 202.27L24.6013 199.463L31.8804 197.322L34.4905 205.405L37.7399 213.491L30.8702 216.508L29.7451 213.774L33.1666 212.37L32.032 209.44L25.0039 212.187L27.4354 218.044L30.2511 223.996L33.015 229.363L39.6278 225.706L38.2783 223.134L34.9406 224.908L33.5334 222.306L40.3301 218.933L44.3012 226.445L48.9026 233.85L42.6611 238.014L41.0784 235.517L44.2041 233.54L42.5779 230.852L36.1336 234.777L39.5451 240.123L43.3517 245.495L47.0055 250.301L52.8829 245.552L51.1073 243.253L48.1283 245.58L46.2906 243.261L52.3983 238.759L57.6373 245.489L63.4816 252L58.0607 257.187L56.0673 255.004L58.801 252.513L56.7314 250.148L51.0693 255.136L55.3596 259.806L60.0436 264.433L64.4785 268.529L69.4391 262.829L67.2902 260.875L64.762 263.685L62.5485 261.721L67.7789 256.225L74.0367 261.882L80.8447 267.228L76.4012 273.273L74.0607 271.467L76.323 268.542L73.8761 266.57L69.1608 272.462L74.1932 276.32L79.6063 280.069L84.6821 283.337L88.5834 276.865L86.1291 275.312L84.1243 278.516L81.605 276.965L85.8072 270.647L93.0062 275.169L100.698 279.283L97.3721 286.008L94.7534 284.636L96.473 281.362L93.7208 279.846L90.1008 286.467L95.727 289.392L101.709 292.143L107.275 294.48L109.993 287.429L107.306 286.325L105.889 289.829L103.138 288.739L106.179 281.788L114.083 285.001L122.402 287.722L120.299 294.924L117.482 294.03L118.604 290.506L115.63 289.492L113.219 296.643L119.269 298.543L125.639 300.21L131.527 301.541L132.975 294.125L130.137 293.506L129.351 297.203L126.453 296.609L128.236 289.234L136.525 291.012L145.136 292.241L144.313 299.698L141.383 299.306L141.878 295.641L138.773 295.158L137.638 302.618L143.926 303.441L150.488 303.978L156.518 304.268L156.658 296.713L153.756 296.596L153.623 300.373L150.666 300.291L151.143 292.718L159.675 293.034L168.428 292.75L168.913 300.237L165.959 300.359L165.811 296.664L162.669 296.728L162.847 304.271L169.181 303.99L175.738 303.379L181.726 302.618L180.552 295.153L177.674 295.542L178.199 299.285L175.272 299.717L174.427 292.177L182.842 291.012L191.372 289.219L193.149 296.508L190.262 297.141L189.473 293.528L186.391 294.137L187.875 301.535L194.065 300.157L200.416 298.418L206.181 296.628L203.729 289.481L200.961 290.363L202.129 293.958L199.321 294.892L197.18 287.613L205.263 285.004L213.349 281.755L216.366 288.625L213.632 289.75L212.228 286.328L209.298 287.463L212.045 294.491L217.901 292.059L223.853 289.244L229.221 286.48L225.564 279.867L222.992 281.216L224.766 284.554L222.163 285.961L218.791 279.165L226.304 275.193L233.709 270.591L237.872 276.832L235.375 278.415L233.399 275.289L230.71 276.915L234.636 283.36L239.981 279.948L245.354 276.142L250.159 272.488L245.41 266.61L243.111 268.386L245.438 271.365L243.119 273.203L238.618 267.095L245.347 261.856L251.858 256.013L257.045 261.434L254.862 263.427L252.371 260.693L250.007 262.763L254.995 268.425L259.664 264.135L264.292 259.451L268.388 255.016L262.688 250.055L260.733 252.204L263.543 254.732L261.58 256.946L256.083 251.715L261.74 245.457L267.087 238.649L273.132 243.092L271.326 245.433L268.401 243.17L266.429 245.617L272.32 250.332L276.179 245.3L279.927 239.887L283.196 234.811L276.724 230.91L275.17 233.364L278.375 235.369L276.823 237.888L270.506 233.686L275.027 226.487L279.14 218.795L285.865 222.121L284.494 224.739L281.219 223.02L279.703 225.772L286.324 229.392L289.249 223.766L292.001 217.784L294.337 212.217L287.286 209.5L286.183 212.187L289.686 213.604L288.597 216.355L281.645 213.314L284.858 205.41L287.579 197.09L294.781 199.193L293.886 202.011L290.363 200.888L289.349 203.862L296.499 206.273L298.4 200.224L300.067 193.854L301.398 187.965L293.982 186.518L293.363 189.356L297.06 190.141L296.466 193.04L289.091 191.256L290.869 182.967L292.098 174.356L299.555 175.179L299.163 178.109L295.498 177.614L295.015 180.719L302.475 181.854L303.298 175.566L303.835 169.004L304.125 162.974L296.57 162.834L296.453 165.736L300.23 165.869L300.148 168.826L292.575 168.349L292.891 159.817L292.608 151.064L300.095 150.579L300.217 153.532L296.522 153.681L296.586 156.823L304.13 156.645L303.848 150.31L303.238 143.754L302.476 137.765L295.012 138.94L295.4 141.818L299.143 141.293L299.575 144.22L292.035 145.064L290.871 136.65L289.077 128.121L296.366 126.343L296.999 129.231L293.386 130.019L293.995 133.102L301.393 131.617L300.015 125.428L298.276 119.077L296.486 113.312L289.339 115.764L290.221 118.532L293.816 117.364L294.75 120.171L287.471 122.313L284.862 114.23L281.614 106.144L288.483 103.127L289.608 105.861L286.187 107.265L287.322 110.195L294.35 107.448L291.918 101.591L289.102 95.6393L286.339 90.2723L279.726 93.9285L281.075 96.5009L284.413 94.7269L285.82 97.3294L279.023 100.702L275.051 93.1892L270.449 85.7841L276.69 81.6206L278.273 84.1174L275.147 86.094L276.774 88.7828L283.218 84.857L279.806 79.5117L276 74.1391L272.346 69.3335L266.469 74.0825L268.244 76.3814L271.223 74.0549L273.061 76.3734L266.953 80.8752L261.714 74.1459L255.87 67.6353L261.291 62.4484L263.284 64.6315L260.551 67.1222L262.62 69.4866L268.282 64.4986L263.992 59.8291L259.308 55.2015L254.873 51.1057L249.912 56.8057L252.061 58.7603L254.59 55.9504L256.803 57.9135L251.573 63.4102L245.315 57.7532L238.507 52.4071L242.95 46.3617L245.291 48.1676L243.029 51.0931L245.476 53.0645L250.191 47.1733L245.158 43.3152L239.745 39.5663L234.669 36.2982L230.768 42.7695L233.222 44.3234L235.227 41.1191L237.747 42.6702L233.544 48.9879L226.345 44.4654L218.654 40.3519L221.979 33.6264L224.598 34.9982L222.879 38.2723L225.631 39.7886L229.251 33.1678L223.625 30.2427L217.643 27.4912L212.076 25.1547L209.359 32.2053L212.045 33.3093L213.463 29.8054L216.214 30.8952L213.173 37.8468L205.268 34.6334L196.947 31.9123L199.05 24.7103L201.868 25.6049L200.745 29.1286L203.719 30.1421L206.131 22.9919L200.081 21.0917L193.711 19.4245L187.823 18.0935L186.375 25.5098L189.213 26.1287L189.999 22.4314L192.897 23.0254L191.114 30.4005L182.824 28.622L174.212 27.3934L175.034 19.9359L177.964 20.3284L177.469 23.9934L180.574 24.4759L181.709 17.0159L175.422 16.1934L168.859 15.6559L162.829 15.3659L162.689 22.9209L165.592 23.0384L165.724 19.2609L168.682 19.3434L168.204 26.9159L159.676 26.6014L150.925 26.8865L150.44 19.3995L153.394 19.2772L153.543 22.9725L156.685 22.9085L156.507 15.3647L150.172 15.6466L143.616 16.2568L137.627 17.0183L138.801 24.4828L141.68 24.0945L141.155 20.3514L144.081 19.9191L144.926 27.4595L136.47 28.6408" stroke="white" stroke-linecap="round" stroke-linejoin="round"/>
</svg>
