<svg height="32" viewBox="0 0 56 28" fill="none" xmlns="http://www.w3.org/2000/svg">
<path d="M23.3355 9.00297H25.1575L28.8557 18.8484H26.9658L26.1908 16.6621H22.1934L21.432 18.8484H19.6644L23.3355 9.00297ZM22.6965 15.2226H25.6741L24.1785 10.9992L22.6965 15.2226Z" fill="currentColor"/>
<path d="M31.245 9.003V14.4757L33.9507 11.5425H35.895L33.0941 14.5437L36.2077 18.8484H34.3178L32.0199 15.6844L31.245 16.5127V18.8484H29.627V9.003H31.245Z" fill="currentColor"/>
<path d="M38.3842 9.00297V14.4757L41.0899 11.5424H43.0342L40.2333 14.5436L43.347 18.8484H41.457L39.1592 15.6843L38.3842 16.5127V18.8484H36.7662V9.00297H38.3842Z" fill="currentColor"/>
<path d="M45.5254 9.00297V10.6326H43.9074V9.00297H45.5254ZM45.5254 11.5424V18.8484H43.9074V11.5424H45.5254Z" fill="currentColor"/>
<path d="M53.9282 15.2091C53.9282 17.8436 52.1063 19.025 50.3252 19.025C48.544 19.025 46.7221 17.8436 46.7221 15.2091C46.7221 12.5746 48.544 11.3796 50.3252 11.3796C52.1063 11.3796 53.9282 12.5746 53.9282 15.2091ZM50.3252 17.7077C51.3449 17.7077 52.2559 16.893 52.2559 15.2091C52.2559 13.5251 51.3449 12.6968 50.3252 12.6968C49.3054 12.6968 48.3945 13.5251 48.3945 15.2091C48.3945 16.893 49.3054 17.7077 50.3252 17.7077Z" fill="currentColor"/>
<path d="M9.11143 6.06565C9.00216 5.95633 8.82489 5.95633 8.71556 6.06565L5.52834 9.25302C5.41901 9.36235 5.41901 9.53963 5.52834 9.64889L8.71556 12.8363C8.82489 12.9456 9.00216 12.9456 9.11143 12.8363L12.2987 9.64889C12.408 9.53963 12.408 9.36235 12.2987 9.25302L9.11143 6.06565Z" fill="currentColor"/>
<path d="M9.11143 15.0238C9.00216 14.9145 8.82489 14.9145 8.71556 15.0238L5.52834 18.2112C5.41901 18.3205 5.41901 18.4978 5.52834 18.6071L8.71556 21.7945C8.82489 21.9038 9.00216 21.9038 9.11143 21.7945L12.2987 18.6071C12.408 18.4978 12.408 18.3205 12.2987 18.2112L9.11143 15.0238Z" fill="currentColor"/>
<path d="M13.593 10.5447C13.4837 10.4354 13.3065 10.4354 13.1972 10.5447L10.0099 13.7321C9.9006 13.8415 9.9006 14.0187 10.0099 14.1281L13.1972 17.3154C13.3065 17.4247 13.4837 17.4247 13.593 17.3154L16.7803 14.1281C16.8896 14.0187 16.8896 13.8415 16.7803 13.7321L13.593 10.5447Z" fill="currentColor"/>
<path d="M4.63196 10.5446C4.52263 10.4353 4.34536 10.4353 4.23603 10.5446L1.04879 13.732C0.939465 13.8414 0.939465 14.0186 1.04879 14.128L4.23603 17.3153C4.34536 17.4246 4.52263 17.4246 4.63196 17.3153L7.81918 14.128C7.92851 14.0186 7.92851 13.8414 7.81918 13.732L4.63196 10.5446Z" fill="currentColor"/>
</svg>
