<svg  class="h-full w-auto" viewBox="0 0 70 28" fill="none" xmlns="http://www.w3.org/2000/svg">
<path d="M67.4489 11.4716C66.3247 11.4716 65.763 11.9075 65.3697 12.5534L65.1872 11.4716H63.3892V18.6923H65.3697V15.1524C65.3697 14.0564 65.8194 13.2699 66.9992 13.2699H67.7865V11.4716H67.4489Z" fill="currentColor"/>
<path d="M58.7941 18.7783C60.7182 18.7783 61.9689 17.6545 62.1934 16.2498H60.2407C60.0723 16.924 59.5102 17.2753 58.7099 17.2753C57.7122 17.2753 57.0518 16.6572 57.0099 15.6317V15.5334H62.2498C62.2917 15.3082 62.3061 15.0696 62.3061 14.8589C62.2783 12.7378 60.8165 11.3891 58.6535 11.3891C56.4196 11.3891 54.9448 12.8498 54.9448 15.0975C54.9448 17.3313 56.3918 18.7783 58.7941 18.7783ZM57.0518 14.2408C57.1646 13.3837 57.8105 12.8639 58.6672 12.8639C59.5666 12.8639 60.1706 13.3555 60.3112 14.2408H57.0518Z" fill="currentColor"/>
<path d="M51.8663 18.693H53.8472V8.85989H51.8663V18.693Z" fill="currentColor"/>
<path d="M48.5028 18.693H50.4836V8.85987H48.5028V18.693Z" fill="currentColor"/>
<path d="M46.144 10.6984C46.7899 10.6984 47.2956 10.2205 47.2956 9.58867C47.2956 8.94271 46.7899 8.46486 46.144 8.46486C45.4977 8.46486 44.992 8.94271 44.992 9.58867C44.992 10.2205 45.4977 10.6984 46.144 10.6984ZM45.1467 18.6919H47.1409V11.4712H45.1467V18.6919Z" fill="currentColor"/>
<path d="M35.7066 18.6929H37.8136V16.052L39.1767 14.5071L42.0143 18.6929H44.5428L40.6656 12.9615L44.3042 8.85983H41.7475L37.8136 13.3128V8.85983H35.7066V18.6929Z" fill="currentColor"/>
<path d="M30.6564 18.7783C32.9604 18.7783 34.4634 17.3172 34.4634 15.0834C34.4634 12.8639 32.9604 11.3891 30.6564 11.3891C28.3524 11.3891 26.8494 12.8639 26.8494 15.0834C26.8494 17.3032 28.3524 18.7783 30.6564 18.7783ZM30.6564 17.1629C29.5467 17.1629 28.8722 16.3055 28.8722 15.0834C28.8722 13.8612 29.5467 13.0045 30.6564 13.0045C31.7661 13.0045 32.4547 13.8612 32.4547 15.0834C32.4547 16.3055 31.7661 17.1629 30.6564 17.1629Z" fill="currentColor"/>
<path d="M22.6865 11.3884C21.6889 11.3884 20.9862 11.8099 20.5088 12.3857V8.85989H18.5279V18.693H20.2558L20.4525 17.7098C20.916 18.3282 21.6325 18.7776 22.6721 18.7776C24.6247 18.7776 26.0297 17.3024 26.0297 15.0689C26.0297 12.779 24.6247 11.3884 22.6865 11.3884ZM22.2368 17.1621C21.155 17.1621 20.4805 16.3051 20.4805 15.0689C20.4805 13.8467 21.155 13.0038 22.2368 13.0038C23.3184 13.0038 24.0204 13.8467 24.0204 15.0826C24.0204 16.3192 23.3184 17.1621 22.2368 17.1621Z" fill="currentColor"/>
<path d="M13.6316 18.7783C15.9354 18.7783 17.4387 17.3172 17.4387 15.0834C17.4387 12.8639 15.9354 11.3891 13.6316 11.3891C11.3278 11.3891 9.82443 12.8639 9.82443 15.0834C9.82443 17.3032 11.3278 18.7783 13.6316 18.7783ZM13.6316 17.1629C12.5218 17.1629 11.8474 16.3055 11.8474 15.0834C11.8474 13.8612 12.5218 13.0045 13.6316 13.0045C14.7414 13.0045 15.4296 13.8612 15.4296 15.0834C15.4296 16.3055 14.7414 17.1629 13.6316 17.1629Z" fill="currentColor"/>
<path d="M1.61719 18.693H3.72442V15.3917H5.49443L7.15203 18.693H9.48409L7.54562 14.9004C8.57094 14.4088 9.2312 13.3971 9.2312 12.1327C9.2312 10.1377 7.78438 8.85989 5.62098 8.85989H1.61719V18.693ZM5.45232 10.6156C6.44965 10.6156 7.08197 11.2055 7.08197 12.1327C7.08197 13.0457 6.44965 13.636 5.45232 13.636H3.72442V10.6156H5.45232Z" fill="currentColor"/>
</svg>
