<svg class="h-full w-auto" viewBox="0 0 48 28" fill="none" xmlns="http://www.w3.org/2000/svg">
<path fill-rule="evenodd" clip-rule="evenodd" d="M27.5899 16.1395C27.5899 19.456 25.7637 19.8539 23.9374 19.8539C20.7971 19.8539 20.1289 18.262 20.1289 15.9848V9.56197H18.9707V8.94289H23.3583V9.56197H22.1111V15.7968C22.1111 17.9967 22.6902 19.0912 24.2826 19.0912C25.9084 19.0912 26.6991 18.2952 26.6991 16.0069V9.56197H25.5298V8.94289H28.6479V9.56197H27.5899V16.1395ZM30.5744 19.1133V9.56197H29.4385V8.94289H34.3049C36.3763 8.94289 37.4007 10.1036 37.4007 11.4634C37.4007 12.9115 36.0756 13.7296 34.8951 13.9728C37.1892 14.1829 37.8128 15.6421 37.8128 16.7144C37.8128 18.9032 35.9308 19.7323 34.0823 19.7323H29.3605V19.1133H30.5744ZM35.4186 11.585C35.4186 10.579 34.8951 9.56197 33.7482 9.56197H32.5121V13.7075H33.6145C34.8283 13.7075 35.4186 12.6905 35.4186 11.585ZM35.8083 16.7144C35.8083 15.2773 35.1847 14.3155 33.7258 14.3155H32.5121V19.1133H33.4921C35.0399 19.1133 35.8083 18.2068 35.8083 16.7144ZM42.668 9.41824C41.5211 9.41824 40.7861 10.0926 40.7861 11.2644C40.7861 12.3256 41.9442 12.8342 43.0689 13.21C43.7371 13.4422 44.5834 13.7517 45.1625 14.3044C45.7973 14.9014 46.1425 15.6973 46.1202 16.7033C46.0757 18.5827 44.7505 19.8539 42.4119 19.865C41.5322 19.865 40.1625 19.666 39.3384 19.1906L39.2493 16.3607H39.9398C39.9954 18.262 40.8974 19.257 42.4787 19.257C43.7482 19.257 44.4498 18.4168 44.4498 17.1345C44.4498 16.029 43.5256 15.5537 42.1224 15.0893C41.6658 14.9346 40.7638 14.6029 40.1291 13.9839C39.5611 13.4201 39.2939 12.7126 39.2939 11.9608C39.2939 9.76095 40.8752 8.81024 42.8351 8.81024C43.6146 8.81024 44.7839 9.08662 45.4632 9.47353L45.53 11.9277H44.8395C44.6948 10.181 43.9264 9.41824 42.668 9.41824Z" fill="currentColor"/>
<path fill-rule="evenodd" clip-rule="evenodd" d="M13.551 11.1258L13.2607 11.3659L13.5671 12.3584L12.6479 11.8621L12.3415 12.1023L13.3574 12.6464L12.2771 13.5108L11.9869 13.1266L12.3739 12.8225L12.0836 12.4864L11.6967 12.7905L11.4064 12.4223L11.7934 12.1182L11.5032 11.7501L9.51995 13.3828L11.4064 14.8873L11.745 14.4711C11.9869 14.4872 12.1642 14.6633 12.2609 14.8873L11.9224 15.3035L12.1319 15.4635C12.5995 15.0474 13.2123 14.7753 13.8411 14.7753C15.1632 14.7753 16.1952 15.8477 16.1952 17.1601C16.1952 17.5924 16.0824 18.0567 15.8405 18.4407L16.1952 18.7129C16.179 18.969 15.9372 19.2411 15.6954 19.3051L15.3567 19.033C14.8892 19.4812 14.2765 19.7212 13.6315 19.7212C12.3094 19.7212 11.2774 18.6808 11.2774 17.3524C11.2774 16.9202 11.4064 16.472 11.5999 16.1038L11.4064 15.9278L11.0678 16.3759C10.8259 16.3439 10.6163 16.1838 10.5519 15.9278L10.8904 15.5276L9.29415 14.215V16.2959L9.82623 16.3119C9.89079 16.3919 9.93919 16.5039 9.93919 16.6321C9.93919 16.7441 9.89079 16.8721 9.84238 16.9681H9.29415V17.2243C10.4551 17.4164 11.4225 18.3926 11.4225 19.5772C11.4225 20.8097 10.4713 21.786 9.29415 21.9781V22.3944C9.18131 22.4584 9.03616 22.5064 8.90722 22.5064C8.76213 22.5064 8.60082 22.4584 8.47183 22.3944V21.9781C7.29483 21.786 6.37574 20.8097 6.37574 19.5772C6.37574 18.3926 7.29483 17.4164 8.47183 17.2402V16.9681H7.92365C7.8591 16.8721 7.82691 16.7441 7.82691 16.6321C7.82691 16.5039 7.8591 16.3919 7.92365 16.2959H8.47183V14.215L6.85948 15.5276L7.21418 15.9278C7.13358 16.1838 6.92391 16.3439 6.68212 16.3759L6.34351 15.9278L6.13386 16.1038C6.35962 16.472 6.47248 16.9202 6.47248 17.3524C6.47248 18.6808 5.44054 19.7212 4.11841 19.7212C3.48952 19.7212 2.8607 19.4812 2.40927 19.033L2.05454 19.3051C1.82878 19.2411 1.5869 18.9691 1.55469 18.7129L1.89329 18.4407C1.68371 18.0567 1.55469 17.5924 1.55469 17.1601C1.55469 15.8477 2.58662 14.7753 3.90876 14.7753C4.55375 14.7753 5.16644 15.0474 5.63401 15.4635L5.82756 15.3195L5.48894 14.8873C5.56956 14.6633 5.77915 14.5032 6.02103 14.4711L6.35962 14.8873L8.24614 13.3828L6.26289 11.7501L5.97262 12.1182L6.35963 12.4223L6.06935 12.7905L5.68242 12.4864L5.39221 12.8225L5.76305 13.1266L5.47284 13.5108L4.40862 12.6464L5.40833 12.1023L5.11806 11.8621L4.19905 12.3584L4.50536 11.3659L4.21515 11.1258L3.87655 12.2143L2.79619 11.3499L3.08647 10.9978L3.45729 11.3019L3.76369 10.9498L3.37668 10.6136L3.66694 10.2775L4.05389 10.5656L4.32798 10.2295L3.48952 9.57322C3.57014 9.30113 3.74757 9.07701 4.00549 8.91694L8.47183 12.5344V10.1174H8.0204V10.5816H7.56891V10.1174H7.10127V10.5816H6.63371V9.22109L7.69785 9.66925V9.28514L6.71434 8.88495L7.69785 8.50076V8.13264L6.63371 8.54882V7.17228H7.10127V7.66849H7.56891V7.17228H8.0204V7.66849H8.47183V6.58003C8.60082 6.53199 8.74597 6.5 8.89107 6.5C9.02012 6.5 9.16521 6.53199 9.29415 6.58003V12.5344L13.7606 8.91694C14.0024 9.077 14.1797 9.30113 14.2765 9.57322L13.4219 10.2295L13.7121 10.5656L14.0991 10.2775L14.3894 10.6136L14.0024 10.9498L14.2926 11.3019L14.6796 10.9978L14.9699 11.3499L13.8895 12.2143L13.551 11.1258ZM4.42471 17.6724C4.42471 18.0567 4.71499 18.2968 5.05361 18.3288L4.48923 18.7609C4.10229 18.6168 3.74757 18.1526 3.74757 17.7525C3.74757 17.6244 3.77979 17.5444 3.81201 17.4483C3.76368 17.4483 3.73139 17.4643 3.69917 17.4643C3.1832 17.4643 2.74785 16.9841 2.65113 16.4879L3.23161 16.0398C3.21541 16.1038 3.21541 16.1518 3.21541 16.1999C3.21541 16.52 3.52182 16.8081 3.8443 16.8081C4.18292 16.8081 4.50534 16.52 4.50534 16.1838C4.50534 15.7677 4.18292 15.4956 3.77979 15.4956C2.98972 15.4956 2.21578 16.248 2.21578 17.2402C2.21578 17.5284 2.28022 17.8004 2.40925 18.0406L2.76397 17.7685C3.00584 17.8805 3.19932 18.1206 3.26382 18.3926L2.90911 18.6648C3.24771 18.9529 3.66694 19.0811 4.10229 19.0811C5.00519 19.0811 5.73082 18.3607 5.73082 17.7204C5.73082 17.3524 5.47284 17.0322 5.08582 17.0322C4.73111 17.0322 4.42471 17.3043 4.42471 17.6724ZM9.21356 19.049C9.21356 19.4012 9.50374 19.6892 9.84238 19.6892C10.0842 19.6892 10.181 19.5932 10.3584 19.4492V20.1694C10.181 20.2655 10.0036 20.3134 9.81013 20.3134C9.4232 20.3134 9.10065 20.2014 8.89107 19.8654C8.66532 20.2014 8.34289 20.3134 7.95584 20.3134C7.7785 20.3134 7.58501 20.2655 7.40767 20.1694V19.4492C7.56891 19.6091 7.69791 19.6892 7.92365 19.6892C8.27833 19.6892 8.55242 19.4012 8.55242 19.049C8.55242 18.7129 8.32674 18.4088 7.95584 18.4088C7.29483 18.4088 7.02073 19.033 7.02073 19.6091C7.02073 20.4576 7.64957 21.1778 8.47183 21.3219V20.8897C8.60082 20.8256 8.74597 20.8097 8.87497 20.8097C9.02012 20.8097 9.16521 20.8256 9.29415 20.8897V21.3219C10.0521 21.2099 10.7453 20.4095 10.7453 19.6091C10.7453 19.0169 10.5035 18.4088 9.81013 18.4088C9.45545 18.4088 9.21356 18.7129 9.21356 19.049ZM13.2284 16.1838C13.2284 16.5039 13.5671 16.8081 13.9056 16.8081C14.2281 16.8081 14.5344 16.52 14.5344 16.1999C14.5344 16.1518 14.5183 16.1038 14.5183 16.0398L15.0827 16.4879C14.9859 17.0322 14.5023 17.5123 13.9379 17.4483C13.9701 17.5444 13.9863 17.6244 13.9863 17.7525C13.9863 18.1526 13.6314 18.6168 13.2446 18.7609L12.6802 18.3288C13.035 18.2968 13.3252 18.0567 13.3252 17.6724C13.3252 17.3043 13.0027 17.0322 12.6479 17.0322C12.2771 17.0322 12.003 17.3524 12.003 17.7366C12.003 18.2007 12.5673 19.0811 13.6476 19.0811C14.083 19.0811 14.5023 18.9529 14.8247 18.6648L14.4699 18.3926C14.5506 18.1206 14.7118 17.8805 14.9698 17.7685L15.3245 18.0406C15.4535 17.8004 15.5341 17.5284 15.5341 17.2402C15.5341 16.472 14.9376 15.4956 13.9863 15.4956C13.5832 15.4956 13.2284 15.7677 13.2284 16.1838Z" fill="currentColor"/>
</svg>
