<svg  class="h-full w-auto" viewBox="0 0 54 28" fill="none" xmlns="http://www.w3.org/2000/svg">
<path d="M24.0962 9.34755H25.8145L29.3024 18.6329H27.52L26.789 16.5709H23.0191L22.301 18.6329H20.634L24.0962 9.34755ZM23.4935 15.2133H26.3018L24.8912 11.2303L23.4935 15.2133Z" fill="currentColor"/>
<path d="M31.5557 9.34758V14.509L34.1075 11.7426H35.9412L33.2997 14.573L36.2361 18.6329H34.4537L32.2866 15.6489L31.5557 16.4301V18.6329H30.0298V9.34758H31.5557Z" fill="currentColor"/>
<path d="M38.2888 9.34755V14.5089L40.8406 11.7426H42.6743L40.0327 14.573L42.9693 18.6329H41.1868L39.0197 15.6488L38.2888 16.43V18.6329H36.7629V9.34755H38.2888Z" fill="currentColor"/>
<path d="M45.0238 9.34755V10.8845H43.4978V9.34755H45.0238ZM45.0238 11.7426V18.6329H43.4978V11.7426H45.0238Z" fill="currentColor"/>
<path d="M52.9486 15.2006C52.9486 17.6852 51.2303 18.7994 49.5505 18.7994C47.8706 18.7994 46.1524 17.6852 46.1524 15.2006C46.1524 12.716 47.8706 11.589 49.5505 11.589C51.2303 11.589 52.9486 12.716 52.9486 15.2006ZM49.5505 17.5571C50.5122 17.5571 51.3714 16.7887 51.3714 15.2006C51.3714 13.6125 50.5122 12.8313 49.5505 12.8313C48.5887 12.8313 47.7296 13.6125 47.7296 15.2006C47.7296 16.7887 48.5887 17.5571 49.5505 17.5571Z" fill="currentColor"/>
<path d="M10.6813 6.57733C10.5783 6.47422 10.4111 6.47422 10.308 6.57733L7.30205 9.58338C7.19894 9.68649 7.19894 9.85368 7.30205 9.95673L10.308 12.9628C10.4111 13.0659 10.5783 13.0659 10.6813 12.9628L13.6873 9.95673C13.7903 9.85368 13.7903 9.68649 13.6873 9.58338L10.6813 6.57733Z" fill="currentColor"/>
<path d="M10.6813 15.0259C10.5783 14.9228 10.4111 14.9228 10.308 15.0259L7.30205 18.032C7.19894 18.1351 7.19894 18.3023 7.30205 18.4053L10.308 21.4114C10.4111 21.5145 10.5783 21.5145 10.6813 21.4114L13.6873 18.4053C13.7903 18.3023 13.7903 18.1351 13.6873 18.032L10.6813 15.0259Z" fill="currentColor"/>
<path d="M14.908 10.8016C14.8048 10.6985 14.6377 10.6985 14.5346 10.8016L11.5287 13.8077C11.4256 13.9108 11.4256 14.078 11.5287 14.1811L14.5346 17.1871C14.6377 17.2902 14.8048 17.2902 14.908 17.1871L17.9139 14.1811C18.017 14.078 18.017 13.9108 17.9139 13.8077L14.908 10.8016Z" fill="currentColor"/>
<path d="M6.45666 10.8015C6.35355 10.6984 6.18637 10.6984 6.08326 10.8015L3.07733 13.8076C2.97422 13.9107 2.97422 14.0779 3.07733 14.181L6.08326 17.187C6.18637 17.2901 6.35355 17.2901 6.45666 17.187L9.46256 14.181C9.56567 14.0779 9.56567 13.9107 9.46256 13.8076L6.45666 10.8015Z" fill="currentColor"/>
</svg>
