<svg xmlns="http://www.w3.org/2000/svg" width="1540" height="4" fill="currentColor" viewBox="0 0 1540 4">
    <path fill-rule="evenodd"
        d="M4 0h6v4H9V1H5v3H0V3h4V0Zm10 0h6v4h-1V1h-4v3h-5V3h4V0Zm10 0h6v4h-1V1h-4v3h-5V3h4V0Zm10 0h6v4h-1V1h-4v3h-5V3h4V0Zm10 0h6v4h-1V1h-4v3h-5V3h4V0Zm10 0h6v4h-1V1h-4v3h-5V3h4V0Zm10 0h6v4h-1V1h-4v3h-5V3h4V0Zm10 0h6v4h-1V1h-4v3h-5V3h4V0Zm10 0h6v4h-1V1h-4v3h-5V3h4V0Zm10 0h6v4h-1V1h-4v3h-5V3h4V0Zm10 0h6v4h-1V1h-4v3h-5V3h4V0Zm10 0h6v4h-1V1h-4v3h-5V3h4V0Zm10 0h6v4h-1V1h-4v3h-5V3h4V0Zm10 0h6v4h-1V1h-4v3h-5V3h4V0Zm10 0h6v4h-1V1h-4v3h-5V3h4V0Zm10 0h6v4h-1V1h-4v3h-5V3h4V0Zm10 0h6v4h-1V1h-4v3h-5V3h4V0Zm10 0h6v4h-1V1h-4v3h-5V3h4V0Zm10 0h6v4h-1V1h-4v3h-5V3h4V0Zm10 0h6v4h-1V1h-4v3h-5V3h4V0Zm10 0h6v4h-1V1h-4v3h-5V3h4V0Zm10 0h6v4h-1V1h-4v3h-5V3h4V0Zm10 0h6v4h-1V1h-4v3h-5V3h4V0Zm10 0h6v4h-1V1h-4v3h-5V3h4V0Zm10 0h6v4h-1V1h-4v3h-5V3h4V0Zm10 0h6v4h-1V1h-4v3h-5V3h4V0Zm10 0h6v4h-1V1h-4v3h-5V3h4V0Zm10 0h6v4h-1V1h-4v3h-5V3h4V0Zm10 0h6v4h-1V1h-4v3h-5V3h4V0Zm10 0h6v4h-1V1h-4v3h-5V3h4V0Zm10 0h6v4h-1V1h-4v3h-5V3h4V0Zm10 0h6v4h-1V1h-4v3h-5V3h4V0Zm10 0h6v4h-1V1h-4v3h-5V3h4V0Zm10 0h6v4h-1V1h-4v3h-5V3h4V0Zm10 0h6v4h-1V1h-4v3h-5V3h4V0Zm10 0h6v4h-1V1h-4v3h-5V3h4V0Zm10 0h6v4h-1V1h-4v3h-5V3h4V0Zm10 0h6v4h-1V1h-4v3h-5V3h4V0Zm10 0h6v4h-1V1h-4v3h-5V3h4V0Zm10 0h6v4h-1V1h-4v3h-5V3h4V0Zm10 0h6v4h-1V1h-4v3h-5V3h4V0Zm10 0h6v4h-1V1h-4v3h-5V3h4V0Zm10 0h6v4h-1V1h-4v3h-5V3h4V0Zm10 0h6v4h-1V1h-4v3h-5V3h4V0Zm10 0h6v4h-1V1h-4v3h-5V3h4V0Zm10 0h6v4h-1V1h-4v3h-5V3h4V0Zm10 0h6v4h-1V1h-4v3h-5V3h4V0Zm10 0h6v4h-1V1h-4v3h-5V3h4V0Zm10 0h6v4h-1V1h-4v3h-5V3h4V0Zm10 0h6v4h-1V1h-4v3h-5V3h4V0Zm10 0h6v4h-1V1h-4v3h-5V3h4V0Zm10 0h6v4h-1V1h-4v3h-5V3h4V0Zm10 0h6v4h-1V1h-4v3h-5V3h4V0Zm10 0h6v4h-1V1h-4v3h-5V3h4V0Zm10 0h6v4h-1V1h-4v3h-5V3h4V0Zm10 0h6v4h-1V1h-4v3h-5V3h4V0Zm10 0h6v4h-1V1h-4v3h-5V3h4V0Zm10 0h6v4h-1V1h-4v3h-5V3h4V0Zm10 0h6v4h-1V1h-4v3h-5V3h4V0Zm10 0h6v4h-1V1h-4v3h-5V3h4V0Zm10 0h6v4h-1V1h-4v3h-5V3h4V0Zm10 0h6v4h-1V1h-4v3h-5V3h4V0Zm10 0h6v4h-1V1h-4v3h-5V3h4V0Zm10 0h6v4h-1V1h-4v3h-5V3h4V0Zm10 0h6v4h-1V1h-4v3h-5V3h4V0Zm10 0h6v4h-1V1h-4v3h-5V3h4V0Zm10 0h6v4h-1V1h-4v3h-5V3h4V0Zm10 0h6v4h-1V1h-4v3h-5V3h4V0Zm10 0h6v4h-1V1h-4v3h-5V3h4V0Zm10 0h6v4h-1V1h-4v3h-5V3h4V0Zm10 0h6v4h-1V1h-4v3h-5V3h4V0Zm10 0h6v4h-1V1h-4v3h-5V3h4V0Zm10 0h6v4h-1V1h-4v3h-5V3h4V0Zm10 0h6v4h-1V1h-4v3h-5V3h4V0Zm10 0h6v4h-1V1h-4v3h-5V3h4V0Zm10 0h6v4h-1V1h-4v3h-5V3h4V0Zm10 0h6v4h-1V1h-4v3h-5V3h4V0Zm10 0h6v4h-1V1h-4v3h-5V3h4V0Zm10 0h6v4h-1V1h-4v3h-5V3h4V0Zm10 0h6v4h-1V1h-4v3h-5V3h4V0Zm10 0h6v4h-1V1h-4v3h-5V3h4V0Zm10 0h6v4h-1V1h-4v3h-5V3h4V0Zm10 0h6v4h-1V1h-4v3h-5V3h4V0Zm10 0h6v4h-1V1h-4v3h-5V3h4V0Zm10 0h6v4h-1V1h-4v3h-5V3h4V0Zm10 0h6v4h-1V1h-4v3h-5V3h4V0Zm10 0h6v4h-1V1h-4v3h-5V3h4V0Zm10 0h6v4h-1V1h-4v3h-5V3h4V0Zm10 0h6v4h-1V1h-4v3h-5V3h4V0Zm10 0h6v4h-1V1h-4v3h-5V3h4V0Zm10 0h6v4h-1V1h-4v3h-5V3h4V0Zm10 0h6v4h-1V1h-4v3h-5V3h4V0Zm10 0h6v4h-1V1h-4v3h-5V3h4V0Zm10 0h6v4h-1V1h-4v3h-5V3h4V0Zm10 0h6v4h-1V1h-4v3h-5V3h4V0Zm10 0h6v4h-1V1h-4v3h-5V3h4V0Zm10 0h6v4h-1V1h-4v3h-5V3h4V0Zm10 0h6v4h-1V1h-4v3h-5V3h4V0Zm10 0h6v4h-1V1h-4v3h-5V3h4V0Zm10 0h6v4h-1V1h-4v3h-5V3h4V0Zm10 0h6v4h-1V1h-4v3h-5V3h4V0Zm10 0h6v4h-1V1h-4v3h-5V3h4V0Zm10 0h6v4h-1V1h-4v3h-5V3h4V0Zm10 0h6v4h-1V1h-4v3h-5V3h4V0Zm10 0h6v4h-1V1h-4v3h-5V3h4V0Zm10 0h6v4h-1V1h-4v3h-5V3h4V0Zm10 0h6v4h-1V1h-4v3h-5V3h4V0Zm10 0h6v4h-1V1h-4v3h-5V3h4V0Zm10 0h6v4h-1V1h-4v3h-5V3h4V0Zm10 0h6v4h-1V1h-4v3h-5V3h4V0Zm10 0h6v4h-1V1h-4v3h-5V3h4V0Zm10 0h6v4h-1V1h-4v3h-5V3h4V0Zm10 0h6v4h-1V1h-4v3h-5V3h4V0Zm10 0h6v4h-1V1h-4v3h-5V3h4V0Zm10 0h6v4h-1V1h-4v3h-5V3h4V0Zm10 0h6v4h-1V1h-4v3h-5V3h4V0Zm10 0h6v4h-1V1h-4v3h-5V3h4V0Zm10 0h6v4h-1V1h-4v3h-5V3h4V0Zm10 0h6v4h-1V1h-4v3h-5V3h4V0Zm10 0h6v4h-1V1h-4v3h-5V3h4V0Zm10 0h6v4h-1V1h-4v3h-5V3h4V0Zm10 0h6v4h-1V1h-4v3h-5V3h4V0Zm10 0h6v4h-1V1h-4v3h-5V3h4V0Zm10 0h6v4h-1V1h-4v3h-5V3h4V0Zm10 0h6v4h-1V1h-4v3h-5V3h4V0Zm10 0h6v4h-1V1h-4v3h-5V3h4V0Zm10 0h6v4h-1V1h-4v3h-5V3h4V0Zm10 0h6v4h-1V1h-4v3h-5V3h4V0Zm10 0h6v4h-1V1h-4v3h-5V3h4V0Zm10 0h6v4h-1V1h-4v3h-5V3h4V0Zm10 0h6v4h-1V1h-4v3h-5V3h4V0Zm10 0h6v4h-1V1h-4v3h-5V3h4V0Zm10 0h6v4h-1V1h-4v3h-5V3h4V0Zm10 0h6v4h-1V1h-4v3h-5V3h4V0Zm10 0h6v4h-1V1h-4v3h-5V3h4V0Zm10 0h6v4h-1V1h-4v3h-5V3h4V0Zm10 0h6v4h-1V1h-4v3h-5V3h4V0Zm10 0h6v4h-1V1h-4v3h-5V3h4V0Zm10 0h6v4h-1V1h-4v3h-5V3h4V0Zm10 0h6v4h-1V1h-4v3h-5V3h4V0Zm10 0h6v4h-1V1h-4v3h-5V3h4V0Zm10 0h6v4h-1V1h-4v3h-5V3h4V0Zm10 0h6v4h-1V1h-4v3h-5V3h4V0Zm10 0h6v4h-1V1h-4v3h-5V3h4V0Zm10 0h6v4h-1V1h-4v3h-5V3h4V0Zm10 0h6v4h-1V1h-4v3h-5V3h4V0Zm10 0h6v4h-1V1h-4v3h-5V3h4V0Zm10 0h6v4h-1V1h-4v3h-5V3h4V0Zm10 0h6v4h-1V1h-4v3h-5V3h4V0Zm10 0h6v4h-1V1h-4v3h-5V3h4V0Zm10 0h6v4h-1V1h-4v3h-5V3h4V0Zm10 0h6v4h-1V1h-4v3h-5V3h4V0Zm10 0h6v4h-1V1h-4v3h-5V3h4V0Zm10 0h6v4h-1V1h-4v3h-5V3h4V0Z"
        clip-rule="evenodd"></path>
</svg>